<svg width="390" height="53" viewBox="0 0 390 53" fill="none" xmlns="http://www.w3.org/2000/svg">
<g clip-path="url(#clip0_1_234)">
<rect x="54.4" y="18.4" width="21.2" height="18.2" fill="#592EBF" stroke="#592EBF" stroke-width="1.2"/>
<line x1="54.0001" y1="24.4" x2="76.0001" y2="24.4051" stroke="white" stroke-width="1.2"/>
<line x1="54.5444" y1="24.6095" x2="60.5444" y2="17.6095" stroke="white" stroke-width="1.2"/>
<line x1="59.5444" y1="24.6095" x2="65.5444" y2="17.6095" stroke="white" stroke-width="1.2"/>
<line x1="64.5444" y1="24.6095" x2="70.5444" y2="17.6095" stroke="white" stroke-width="1.2"/>
<line x1="69.5444" y1="24.6095" x2="75.5444" y2="17.6095" stroke="white" stroke-width="1.2"/>
<path d="M68 30L63.5 32.5981L63.5 27.4019L68 30Z" stroke="white" stroke-width="1.2"/>
</g>
<g filter="url(#filter0_d_1_234)">
<path d="M185.919 24.8403L186.517 24.8946L186.517 24.8946L185.919 24.8403ZM186.641 23.5305L186.28 23.0507C186.274 23.0554 186.268 23.0603 186.262 23.0654L186.641 23.5305ZM203.365 23.5305L203.744 23.0654C203.728 23.052 203.71 23.0396 203.693 23.028L203.365 23.5305ZM204.086 24.8403L203.489 24.8946L203.489 24.8946L204.086 24.8403ZM205 36.3565V36.9565H205.647L205.598 36.311L205 36.3565ZM185 36.3565L184.402 36.3106L184.352 36.9565H185V36.3565ZM201.924 22.2892L201.338 22.1609L201.082 23.3332L201.668 23.4614L201.924 22.2892ZM188.332 23.4628L188.919 23.3407L188.675 22.1658L188.088 22.2878L188.332 23.4628ZM186.517 24.8946C186.546 24.5666 186.716 24.2428 187.02 23.9955L186.262 23.0654C185.728 23.5001 185.383 24.1116 185.322 24.786L186.517 24.8946ZM202.986 23.9955C203.289 24.2428 203.459 24.5666 203.489 24.8946L204.684 24.786C204.623 24.1116 204.277 23.5001 203.744 23.0654L202.986 23.9955ZM203.693 23.028C203.06 22.615 202.654 22.4489 201.924 22.2892L201.668 23.4614C202.259 23.5909 202.529 23.7016 203.037 24.0329L203.693 23.028ZM187.001 24.0103C187.205 23.8572 187.36 23.763 187.539 23.6871C187.724 23.6086 187.959 23.5402 188.332 23.4628L188.088 22.2878C187.682 22.3721 187.361 22.4594 187.071 22.582C186.775 22.7074 186.534 22.8599 186.28 23.0507L187.001 24.0103ZM203.489 24.8946C203.602 26.1406 203.83 29.0152 204.03 31.5831C204.13 32.866 204.223 34.0707 204.291 34.9548C204.325 35.3968 204.352 35.7587 204.372 36.01C204.381 36.1356 204.389 36.2337 204.394 36.3003C204.396 36.3336 204.398 36.359 204.4 36.3762C204.4 36.3847 204.401 36.3912 204.401 36.3955C204.401 36.3977 204.401 36.3993 204.401 36.4004C204.402 36.401 204.402 36.4014 204.402 36.4016C204.402 36.4018 204.402 36.4019 204.402 36.4019C204.402 36.402 204.402 36.4021 205 36.3565C205.598 36.311 205.598 36.3109 205.598 36.3109C205.598 36.3108 205.598 36.3107 205.598 36.3106C205.598 36.3103 205.598 36.3099 205.598 36.3093C205.598 36.3082 205.598 36.3066 205.598 36.3044C205.597 36.3001 205.597 36.2936 205.596 36.285C205.595 36.2679 205.593 36.2424 205.59 36.209C205.585 36.1424 205.578 36.0443 205.568 35.9186C205.549 35.6671 205.521 35.3051 205.487 34.863C205.419 33.9786 205.327 32.7734 205.227 31.4899C205.027 28.925 204.798 26.0415 204.684 24.786L203.489 24.8946ZM205 35.7565H185V36.9565H205V35.7565ZM185 36.3565C185.598 36.4024 185.598 36.4024 185.598 36.4023C185.598 36.4022 185.598 36.4021 185.598 36.402C185.598 36.4017 185.598 36.4013 185.598 36.4008C185.599 36.3997 185.599 36.3981 185.599 36.3959C185.599 36.3916 185.6 36.3851 185.6 36.3765C185.602 36.3594 185.604 36.3339 185.606 36.3006C185.611 36.234 185.619 36.136 185.629 36.0103C185.648 35.759 185.676 35.3972 185.71 34.9552C185.778 34.0711 185.872 32.8663 185.973 31.5834C186.174 29.0156 186.403 26.1408 186.517 24.8946L185.322 24.786C185.207 26.0413 184.977 28.9246 184.776 31.4896C184.675 32.773 184.582 33.9783 184.514 34.8626C184.479 35.3048 184.451 35.6668 184.432 35.9182C184.422 36.0439 184.415 36.142 184.41 36.2087C184.407 36.242 184.405 36.2675 184.404 36.2846C184.403 36.2932 184.403 36.2997 184.402 36.3041C184.402 36.3062 184.402 36.3079 184.402 36.309C184.402 36.3095 184.402 36.3099 184.402 36.3102C184.402 36.3103 184.402 36.3104 184.402 36.3105C184.402 36.3106 184.402 36.3106 185 36.3565Z" fill="#9E9D9D"/>
<path d="M199.532 26.0001V21.0001C199.532 19.9392 199.055 18.9218 198.206 18.1717C197.356 17.4215 196.204 17.0001 195.003 17.0001C193.802 17.0001 192.65 17.4215 191.801 18.1717C190.952 18.9218 190.475 19.9392 190.475 21.0001V26.0001" stroke="#9E9D9D" stroke-width="1.2" stroke-linecap="square" stroke-linejoin="round"/>
<line x1="193.1" y1="22.4489" x2="196.9" y2="22.4489" stroke="#9E9D9D" stroke-width="1.2" stroke-linecap="square"/>
</g>
<rect x="315.597" y="17.5971" width="7.69154" height="9.91443" stroke="#9E9D9D" stroke-width="1.2"/>
<rect x="326.708" y="17.5971" width="7.69154" height="5.46866" stroke="#9E9D9D" stroke-width="1.2"/>
<rect x="326.708" y="26.4889" width="7.69154" height="9.91443" stroke="#9E9D9D" stroke-width="1.2"/>
<rect x="315.597" y="30.9348" width="7.69154" height="5.46866" stroke="#9E9D9D" stroke-width="1.2"/>
<line y1="48.5" x2="130" y2="48.5" stroke="#592EBF"/>
<defs>
<filter id="filter0_d_1_234" x="167" y="-1" width="56" height="56" filterUnits="userSpaceOnUse" color-interpolation-filters="sRGB">
<feFlood flood-opacity="0" result="BackgroundImageFix"/>
<feColorMatrix in="SourceAlpha" type="matrix" values="0 0 0 0 0 0 0 0 0 0 0 0 0 0 0 0 0 0 127 0" result="hardAlpha"/>
<feOffset/>
<feGaussianBlur stdDeviation="8"/>
<feComposite in2="hardAlpha" operator="out"/>
<feColorMatrix type="matrix" values="0 0 0 0 1 0 0 0 0 1 0 0 0 0 1 0 0 0 0.35 0"/>
<feBlend mode="normal" in2="BackgroundImageFix" result="effect1_dropShadow_1_234"/>
<feBlend mode="normal" in="SourceGraphic" in2="effect1_dropShadow_1_234" result="shape"/>
</filter>
<clipPath id="clip0_1_234">
<rect width="22" height="19" fill="white" transform="translate(54 18)"/>
</clipPath>
</defs>
</svg>
