<svg width="54" height="54" viewBox="0 0 54 54" fill="none" xmlns="http://www.w3.org/2000/svg">
<g filter="url(#filter0_d_1_313)">
<path d="M17.919 24.84L18.6659 24.9079L18.6659 24.9079L17.919 24.84ZM18.6405 23.5302L18.1902 22.9304C18.1823 22.9364 18.1744 22.9425 18.1667 22.9488L18.6405 23.5302ZM35.3647 23.5302L35.8385 22.9488C35.8181 22.9321 35.7968 22.9165 35.7747 22.9021L35.3647 23.5302ZM36.0862 24.84L35.3393 24.9079L35.3393 24.9079L36.0862 24.84ZM36.9998 36.3562V37.1062H37.809L37.7476 36.2993L36.9998 36.3562ZM17 36.3562L16.2522 36.2988L16.1903 37.1062H17V36.3562ZM33.9561 22.1423L33.2234 21.982L32.9029 23.4474L33.6355 23.6077L33.9561 22.1423ZM20.362 23.6093L21.0964 23.4568L20.7913 21.9881L20.057 22.1407L20.362 23.6093ZM18.6659 24.9079C18.6918 24.6232 18.8398 24.3353 19.1144 24.1115L18.1667 22.9488C17.6045 23.407 17.2373 24.0544 17.1721 24.7721L18.6659 24.9079ZM34.8908 24.1115C35.1654 24.3353 35.3134 24.6232 35.3393 24.9079L36.8331 24.7721C36.7679 24.0544 36.4007 23.407 35.8385 22.9488L34.8908 24.1115ZM35.7747 22.9021C35.1262 22.4788 34.7033 22.3058 33.9561 22.1423L33.6355 23.6077C34.2099 23.7333 34.4629 23.8371 34.9547 24.1582L35.7747 22.9021ZM19.0909 24.1299C19.2885 23.9815 19.4326 23.8946 19.5971 23.825C19.7696 23.752 19.9931 23.686 20.362 23.6093L20.057 22.1407C19.6473 22.2258 19.3153 22.3154 19.0125 22.4436C18.7016 22.5752 18.4505 22.735 18.1902 22.9304L19.0909 24.1299ZM35.3393 24.9079C35.4525 26.1527 35.6804 29.0262 35.8805 31.5944C35.9805 32.8773 36.0733 34.082 36.1412 34.966C36.1751 35.408 36.2028 35.7698 36.222 36.0211C36.2316 36.1468 36.2391 36.2448 36.2442 36.3114C36.2467 36.3447 36.2486 36.3701 36.25 36.3872C36.2506 36.3958 36.2511 36.4023 36.2514 36.4066C36.2516 36.4088 36.2517 36.4104 36.2518 36.4115C36.2518 36.412 36.2519 36.4125 36.2519 36.4127C36.2519 36.4129 36.2519 36.413 36.2519 36.413C36.2519 36.4131 36.2519 36.4131 36.9998 36.3562C37.7476 36.2993 37.7476 36.2993 37.7476 36.2992C37.7476 36.2991 37.7476 36.299 37.7476 36.2989C37.7475 36.2986 37.7475 36.2982 37.7475 36.2976C37.7474 36.2965 37.7473 36.2949 37.7471 36.2927C37.7468 36.2884 37.7463 36.2819 37.7456 36.2733C37.7443 36.2562 37.7424 36.2307 37.7398 36.1973C37.7347 36.1307 37.7273 36.0326 37.7177 35.9068C37.6984 35.6554 37.6707 35.2934 37.6368 34.8512C37.5689 33.9668 37.476 32.7615 37.376 31.4779C37.1762 28.9134 36.9474 26.0288 36.8331 24.7721L35.3393 24.9079ZM36.9998 35.6062H17V37.1062H36.9998V35.6062ZM17 36.3562C17.7478 36.4136 17.7478 36.4135 17.7478 36.4135C17.7478 36.4134 17.7478 36.4133 17.7478 36.4132C17.7479 36.4129 17.7479 36.4125 17.7479 36.4119C17.748 36.4109 17.7481 36.4092 17.7483 36.4071C17.7486 36.4027 17.7491 36.3962 17.7498 36.3877C17.7511 36.3706 17.7531 36.3451 17.7556 36.3118C17.7607 36.2452 17.7683 36.1472 17.7779 36.0215C17.7973 35.7702 17.8252 35.4084 17.8594 34.9664C17.9278 34.0824 18.0213 32.8777 18.1219 31.5948C18.3234 29.0267 18.5527 26.153 18.6659 24.9079L17.1721 24.7721C17.0579 26.0285 16.8277 28.913 16.6265 31.4775C16.5258 32.7611 16.4323 33.9664 16.3638 34.8507C16.3296 35.2929 16.3017 35.6549 16.2824 35.9064C16.2727 36.0321 16.2652 36.1302 16.26 36.1969C16.2575 36.2302 16.2555 36.2557 16.2542 36.2729C16.2535 36.2814 16.253 36.2879 16.2527 36.2923C16.2525 36.2944 16.2524 36.2961 16.2523 36.2972C16.2523 36.2977 16.2523 36.2981 16.2522 36.2984C16.2522 36.2986 16.2522 36.2987 16.2522 36.2987C16.2522 36.2988 16.2522 36.2988 17 36.3562Z" fill="#B4B4B4"/>
<path d="M31.5319 26V21C31.5319 19.9391 31.0548 18.9217 30.2055 18.1716C29.3562 17.4214 28.2042 17 27.0031 17C25.802 17 24.6501 17.4214 23.8008 18.1716C22.9515 18.9217 22.4744 19.9391 22.4744 21V26" stroke="#B4B4B4" stroke-width="1.5" stroke-linecap="square" stroke-linejoin="round"/>
<line x1="25.25" y1="22.2988" x2="28.75" y2="22.2988" stroke="#B4B4B4" stroke-width="1.5" stroke-linecap="square"/>
</g>
<defs>
<filter id="filter0_d_1_313" x="-1" y="-1" width="56" height="56" filterUnits="userSpaceOnUse" color-interpolation-filters="sRGB">
<feFlood flood-opacity="0" result="BackgroundImageFix"/>
<feColorMatrix in="SourceAlpha" type="matrix" values="0 0 0 0 0 0 0 0 0 0 0 0 0 0 0 0 0 0 127 0" result="hardAlpha"/>
<feOffset/>
<feGaussianBlur stdDeviation="8"/>
<feComposite in2="hardAlpha" operator="out"/>
<feColorMatrix type="matrix" values="0 0 0 0 1 0 0 0 0 1 0 0 0 0 1 0 0 0 0.35 0"/>
<feBlend mode="normal" in2="BackgroundImageFix" result="effect1_dropShadow_1_313"/>
<feBlend mode="normal" in="SourceGraphic" in2="effect1_dropShadow_1_313" result="shape"/>
</filter>
</defs>
</svg>
